Coordinates
version=1
nRows=10
nColumns=63
inDegrees=yes

Units are S.I. units (second, meters, Newtons, ...)
If the header above contains a line with 'inDegrees', this indicates whether rotational values are in degrees (yes) or radians (no).

endheader
time	pelvis_tilt	pelvis_list	pelvis_rotation	pelvis_tx	pelvis_ty	pelvis_tz	hip_flexion_r	hip_adduction_r	hip_rotation_r	knee_angle_r	knee_angle_r_beta	ankle_angle_r	subtalar_angle_r	mtp_angle_r	hip_flexion_l	hip_adduction_l	hip_rotation_l	knee_angle_l	knee_angle_l_beta	ankle_angle_l	subtalar_angle_l	mtp_angle_l	L5_S1_Flex_Ext	L5_S1_Lat_Bending	L5_S1_axial_rotation	L4_L5_Flex_Ext	L4_L5_Lat_Bending	L4_L5_axial_rotation	L3_L4_Flex_Ext	L3_L4_Lat_Bending	L3_L4_axial_rotation	L2_L3_Flex_Ext	L2_L3_Lat_Bending	L2_L3_axial_rotation	L1_L2_Flex_Ext	L1_L2_Lat_Bending	L1_L2_axial_rotation	L1_T12_Flex_Ext	L1_T12_Lat_Bending	L1_T12_axial_rotation	Abs_r3	Abs_r2	Abs_r1	Abs_t1	Abs_t2	neck_flexion	neck_bending	neck_rotation	arm_flex_r	arm_add_r	arm_rot_r	elbow_flex_r	pro_sup_r	wrist_flex_r	wrist_dev_r	arm_flex_l	arm_add_l	arm_rot_l	elbow_flex_l	pro_sup_l	wrist_flex_l	wrist_dev_l
      3.55932203	     -6.68622973	      1.54051098	     89.26944272	      0.26827684	      0.88720378	      0.70143360	     11.87142905	     -6.83368181	      1.28663772	     23.86746637	      0.41656587	     41.22996169	     -4.13188561	      0.00000000	      4.19704384	      7.29011923	      3.96506229	      8.74704900	      0.15266480	     27.39767342	     -6.34708907	      0.00000000	     -0.00691534	     -1.65898045	      1.77680483	     -0.01284248	     -2.20644399	      1.88785514	     -0.01136121	     -4.03364505	      1.88785514	     -0.00790354	     -4.03364505	      1.55470423	     -0.00642159	     -3.38299292	      1.44365393	     -0.00395143	     -2.56976071	      1.33260363	     -0.04939559	    -18.76671859	      9.88205544	      0.00000000	      0.00000000	     14.87570660	     18.21861639	    -24.51781218	     54.75150971	    -30.71748803	      2.71591710	    111.41477238	     87.61027099	     -9.21566476	    -14.92208218	     21.25242902	    -19.28072168	    124.57324532	      8.64539558	      5.56916421	    -13.14822954	    -18.82037477
      3.57627119	     -6.60381980	      1.37542951	     89.34690909	      0.26860914	      0.88741918	      0.70053428	     11.86551864	     -6.85220972	      0.62502857	     23.67894860	      0.41327562	     41.48200516	     -3.22139660	      0.00000000	      4.25643170	      7.17032065	      4.13926693	      8.61009167	      0.15027445	     27.71557542	     -5.99546924	      0.00000000	      0.00432481	     -1.65944234	      1.87130976	      0.00803161	     -2.20705832	      1.98826661	      0.00710524	     -4.03476812	      1.98826661	      0.00494283	     -4.03476812	      1.63739604	      0.00401602	     -3.38393483	      1.52043918	      0.00247120	     -2.57047619	      1.40348232	      0.03089172	    -18.77194369	     10.40766346	      0.00000000	      0.00000000	     15.59872316	     17.92660057	    -25.81492141	     53.83803891	    -31.02874898	      1.11914216	    113.26668331	     87.68201070	     -8.33876478	    -12.64660595	     21.52159617	    -18.44850771	    130.48222962	      7.48542820	      3.87732025	    -14.31248211	    -18.87540010
      3.59322034	     -6.44810858	      1.35364702	     89.26644786	      0.26883628	      0.88766681	      0.70001316	     11.76559703	     -6.66274991	      0.69061215	     23.49305544	      0.41003117	     41.52055554	     -3.13986543	      0.00000000	      4.16367099	      6.99257952	      4.44250503	      8.42209211	      0.14699324	     28.06771316	     -5.79010102	      0.00000000	      0.00344687	     -1.63657762	      1.86962245	      0.00640118	     -2.17664823	      1.98647385	      0.00566286	     -3.97917482	      1.98647385	      0.00393943	     -3.97917482	      1.63591964	      0.00320076	     -3.33730908	      1.51906824	      0.00196954	     -2.53505873	      1.40221683	      0.02462064	    -18.51329332	     10.39827915	      0.00000000	      0.00000000	     16.22728002	     17.82627901	    -25.91240343	     53.78504848	    -30.72785025	      0.71059248	    114.07310705	     87.64689620	     -8.34973090	    -12.47195014	     21.22226301	    -18.14700494	    130.84962356	      7.12459999	      4.00178946	    -14.60889125	    -19.49444955
      3.61016949	     -6.21948598	      1.33502424	     89.16604533	      0.26921786	      0.88789825	      0.69971051	     11.67199243	     -6.34328335	      0.93036942	     23.30544911	      0.40675682	     41.43970433	     -3.37793052	      0.00000000	      4.15967960	      6.65050153	      3.46472456	      8.40480707	      0.14669156	     28.60995843	     -4.15606745	      0.00000000	     -0.00450909	     -1.61661773	      1.87764932	     -0.00837384	     -2.15010158	      1.99500240	     -0.00740799	     -3.93064434	      1.99500240	     -0.00515344	     -3.93064434	      1.64294316	     -0.00418714	     -3.29660687	      1.52559007	     -0.00257650	     -2.50414086	      1.40823699	     -0.03220801	    -18.28750305	     10.44292223	      0.00000000	      0.00000000	     16.95374005	     18.02627627	    -26.53930341	     53.50660220	    -30.61910934	     -0.48000625	    115.35451032	     87.79914676	     -6.22591736	     -9.38568211	     20.88717241	    -17.74499062	    134.99520642	      6.16476993	      3.08912124	    -15.57546324	    -19.61993978
      3.62711864	     -6.14303548	      1.44297987	     89.08035038	      0.26937577	      0.88806242	      0.69985610	     11.55158093	     -6.30495543	      0.73311594	     23.28940705	      0.40647683	     41.55367499	     -3.00424403	      0.00000000	      3.98190094	      6.51941325	      2.99851251	      8.28698093	      0.14463510	     28.75379788	     -3.24003773	      0.00000000	     -0.02116689	     -1.60542540	      1.77267382	     -0.03930903	     -2.13521579	      1.88346593	     -0.03477508	     -3.90343133	      1.88346593	     -0.02419163	     -3.90343133	      1.55108959	     -0.01965557	     -3.27378348	      1.44029748	     -0.01209476	     -2.48680395	      1.32950536	     -0.15119296	    -18.16089325	      9.85907998	      0.00000000	      0.00000000	     17.37731606	     18.46553257	    -26.10561777	     53.91200816	    -30.07741982	     -0.39640166	    115.43596733	     87.97026424	     -5.04962560	     -8.38074392	     20.34287708	    -17.89497723	    134.40228286	      6.15353359	      3.62759355	    -15.59672531	    -19.98738818
      3.64406780	     -5.95946716	      1.66270256	     88.90108014	      0.26922701	      0.88809714	      0.70003880	     11.34777103	     -6.06466025	      1.08501565	     23.33159594	      0.40721317	     41.45108641	     -3.47095535	      0.00000000	      3.53170346	      6.52026765	      5.53758465	      7.91225153	      0.13809484	     27.79379942	     -6.90132938	      0.00000000	     -0.04072802	     -1.57316877	      1.66026116	     -0.07563600	     -2.09231447	      1.76402748	     -0.06691206	     -3.82500256	      1.76402748	     -0.04654805	     -3.82500256	      1.45272851	     -0.03782003	     -3.20800577	      1.34896219	     -0.02327199	     -2.43683843	      1.24519587	     -0.29091614	    -17.79599982	      9.23387447	      0.00000000	      0.00000000	     17.46780248	     18.93395695	    -25.36429852	     54.57036849	    -29.72236330	      0.50239837	    114.87924816	     88.06028238	     -5.18360075	     -8.51502051	     19.61609329	    -17.72271374	    137.03340121	      5.42303834	      2.87141222	    -15.84139937	    -19.45866579
      3.66101695	     -5.87175753	      1.96518176	     88.52954133	      0.26937976	      0.88812171	      0.70023662	     11.16422049	     -5.94473544	      1.40092262	     23.52988789	      0.41067402	     41.32448130	     -3.68476862	      0.00000000	      2.97074800	      6.55936422	      7.38882970	      7.53739776	      0.13155241	     26.70918488	    -10.05182079	      0.00000000	     -0.05953266	     -1.55214110	      1.56103686	     -0.11055810	     -2.06434766	      1.65860166	     -0.09780620	     -3.77387587	      1.65860166	     -0.06803988	     -3.77387587	      1.36590725	     -0.05528203	     -3.16512613	      1.26834245	     -0.03401696	     -2.40426656	      1.17077764	     -0.42523582	    -17.55813055	      8.68201869	      0.00000000	      0.00000000	     17.21085215	     19.52786192	    -24.35334169	     55.30108665	    -29.30187781	      1.79075816	    114.00965318	     88.19455626	     -5.95569226	     -8.85118117	     18.95979744	    -17.81124615	    136.46814161	      5.32128541	      2.96404892	    -15.26497808	    -19.10811660
      3.67796610	     -5.84265864	      2.26311189	     88.05419484	      0.26974405	      0.88811919	      0.70027458	     11.04397594	     -5.88561307	      1.73103440	     23.84953241	      0.41625287	     41.19664785	     -3.77512053	      0.00000000	      2.53230079	      6.55000546	      7.45075747	      7.42893520	      0.12965938	     26.18180862	    -10.96936828	      0.00000000	     -0.07361139	     -1.53928627	      1.51963941	     -0.13670372	     -2.04725074	      1.61461688	     -0.12093616	     -3.74262063	      1.61461688	     -0.08413046	     -3.74262063	      1.32968449	     -0.06835554	     -3.13891256	      1.23470702	     -0.04206155	     -2.38435443	      1.13972956	     -0.52579881	    -17.41271412	      8.45177852	      0.00000000	      0.00000000	     16.85244579	     20.16776027	    -23.41032211	     55.82750587	    -28.99587928	      2.70584360	    113.37850284	     88.29111741	     -6.19772275	     -8.50750084	     18.46908542	    -17.81487440	    136.74299727	      5.17119020	      3.09428391	    -14.74618908	    -18.21152797
      3.69491525	     -5.77598476	      2.44486840	     87.84322629	      0.27008360	      0.88819807	      0.69995958	     10.94249210	     -5.82395562	      1.69773388	     24.11655267	      0.42091325	     40.96714734	     -3.87825386	      0.00000000	      2.28183152	      6.47304478	      7.27551097	      7.51975651	      0.13124451	     25.84373811	    -11.29944076	      0.00000000	     -0.07770733	     -1.53589519	      1.49129534	     -0.14431029	     -2.04274060	      1.58450130	     -0.12766538	     -3.73437557	      1.58450130	     -0.08881171	     -3.73437557	      1.30488343	     -0.07215903	     -3.13199747	      1.21167747	     -0.04440197	     -2.37910165	      1.11847151	     -0.55505572	    -17.37435358	      8.29413731	      0.00000000	      0.00000000	     16.50590285	     20.64492499	    -23.46844203	     55.94474673	    -28.95822153	      3.06220589	    113.14564962	     88.33872464	     -6.25529505	     -8.34885765	     18.19321110	    -17.90794776	    136.86004639	      5.31557571	      3.15914676	    -14.52440462	    -17.76047427
      3.71186441	     -5.77747272	      2.74648951	     87.17420495	      0.27079528	      0.88821921	      0.69931570	     10.78170431	     -5.57516602	      3.08999975	     24.38273383	      0.42555899	     40.57917903	     -5.16455703	      0.00000000	      1.64990996	      6.60116873	      9.06030073	      7.13080937	      0.12445610	     24.62347100	    -14.89309472	      0.00000000	     -0.08782057	     -1.52137728	      1.55060125	     -0.16309159	     -2.02343178	      1.64751383	     -0.14428042	     -3.69907672	      1.64751383	     -0.10037013	     -3.69907672	      1.35677609	     -0.08155018	     -3.10239255	      1.25986351	     -0.05018068	     -2.35661341	      1.16295094	     -0.62729357	    -17.21012407	      8.62397897	      0.00000000	      0.00000000	     16.20678980	     21.29221974	    -22.14242076	     56.46228235	    -28.85531789	      3.97279167	    112.91324879	     88.32553088	     -7.77531601	     -8.11640341	     17.81247062	    -17.64388884	    139.16067512	      4.57054577	      2.85668792	    -13.52126295	    -15.87198119
